{"asset":{"version":"2.0","generator":"babylon.js glTF exporter for Maya 2018 v20210212.2"},"scene":0,"scenes":[{"nodes":[0]}],"nodes":[{"mesh":0,"name":"Arcade_Machine","extras":{"currentUVSet":"UVChannel_1","MaxHandle":1}}],"meshes":[{"primitives":[{"attributes":{"POSITION":1,"TANGENT":2,"NORMAL":3,"TEXCOORD_0":4},"indices":0,"material":0}],"name":"Arcade_Machine"}],"accessors":[{"bufferView":0,"componentType":5123,"count":64164,"type":"SCALAR","name":"accessorIndices"},{"bufferView":1,"componentType":5126,"count":12161,"max":[0.281597823,1.65218806,0.321841449],"min":[-0.281597883,4.05883766E-05,-0.3218414],"type":"VEC3","name":"accessorPositions"},{"bufferView":2,"componentType":5126,"count":12161,"type":"VEC4","name":"accessorTangents"},{"bufferView":1,"byteOffset":145932,"componentType":5126,"count":12161,"type":"VEC3","name":"accessorNormals"},{"bufferView":3,"componentType":5126,"count":12161,"type":"VEC2","name":"accessorUVs"}],"bufferViews":[{"buffer":0,"byteLength":128328,"name":"bufferViewScalar"},{"buffer":0,"byteOffset":128328,"byteLength":291864,"byteStride":12,"name":"bufferViewFloatVec3"},{"buffer":0,"byteOffset":420192,"byteLength":194576,"byteStride":16,"name":"bufferViewFloatVec4"},{"buffer":0,"byteOffset":614768,"byteLength":97288,"byteStride":8,"name":"bufferViewFloatVec2"}],"buffers":[{"uri":"Arcade.bin","byteLength":712056}],"materials":[{"pbrMetallicRoughness":{"baseColorTexture":{"index":0},"metallicFactor":0.0,"roughnessFactor":0.450053632},"alphaMode":"BLEND","name":"ArcadeMachineMAT"}],"textures":[{"sampler":0,"source":0,"name":"UV_alpha_UV.png"}],"images":[{"uri":"UV_alpha_UV.png"}],"samplers":[{"magFilter":9729,"minFilter":9987}]}